# xmcd
#
# Track frame offsets: 
#        150
#        30811
#        43099
#        58747
#        85213
#        95912
#        109567
#        119966
#        148267
#
# Disc length: 2184 seconds
#
# Revision: 0
# Processed by: cddbd v1.5.2PL0 Copyright (c) Steve Scherf et al.
# Submitted via: ExactAudioCopy v0.95b3
#
DISCID=80088609
DTITLE=The Illusion  - The Illusion (1969) EMI Dot Records  
DYEAR=1900
DGENRE=
TTITLE0=Did You See Her Eyes
TTITLE1=Talkin' Sweet Talkin' Soul
TTITLE2=Just Imagine
TTITLE3=Medley -  Run, Run, Run-Willy Gee
TTITLE4=I Love You, Yes I Do
TTITLE5=Alone
TTITLE6=Charleena
TTITLE7=Medley - Why, Tell Me Why-The Real Thing
TTITLE8=You Made Me What I Am
EXTD=
EXTT0=
EXTT1=
EXTT2=
EXTT3=
EXTT4=
EXTT5=
EXTT6=
EXTT7=
EXTT8=
PLAYORDER=
